# xmcd CD database file
#
# Track frame offsets:
#	150
#	16835
#	34760
#	47410
#	59535
#	72847
#	86690
#	104367
#	114935
#	124805
#	146250
#	159822
#	171665
#	188165
#	201785
#	222327
#
# Disc length: 3250 seconds
#
# Revision: 2
# Processed by: cddbd v1.4PL0 Copyright (c) Steve Scherf et al.
# Submitted via: Feurio! 1.62 - http://www.feurio.com
#
DISCID=da0cb010
DTITLE=Various Artist - THE BEST OF DIXIE
DYEAR=1900
DGENRE=Dixie
TTITLE0=THE ORIGINAL DIXIELAND STOMPERS - Track 01Down by the Riverside
TTITLE1=THE ORIGINAL DIXIELAND STOMPERS - Black Roses Blues
TTITLE2=THE ORIGINAL DIXIELAND STOMPERS - Buggle Call Blues
TTITLE3=THE ORIGINAL DIXIELAND STOMPERS - Over in The Gloryland
TTITLE4=THE ORIGINAL DIXIELAND STOMPERS - Play It To Me
TTITLE5=THE ORIGINAL DIXIELAND STOMPERS - My Bonny Is Over The Ocean 
TTITLE6=THE ORIGINAL DIXIELAND STOMPERS - Nobody Knows The Troubel I`ve Seen
TTITLE7=THE ORIGINAL DIXIELAND STOMPERS - Lizzy`s Rag
TTITLE8=THE STATION HALL JAZZBAND - Just Like In The Old Days
TTITLE9=THE STATION HALL JAZZBAND - Somtimes I Fell Like A Motherles Child
TTITLE10=THE STATION HALL JAZZBAND - Go Down Moses
TTITLE11=THE STATION HALL JAZZBAND - Dont Beat About Me
TTITLE12=THE STATION HALL JAZZBAND - When You And I Were Young Maggie
TTITLE13=THE STATION HALL JAZZBAND - Midnight in Moscow 
TTITLE14=THE STATION HALL JAZZBAND - Just A Littel While To Stay Here
TTITLE15=THE STATION HALL JAZZBAND - Franky and Johny
EXTD=
EXTT0=
EXTT1=
EXTT2=
EXTT3=
EXTT4=
EXTT5=
EXTT6=
EXTT7=
EXTT8=
EXTT9=
EXTT10=
EXTT11=
EXTT12=
EXTT13=
EXTT14=
EXTT15=
PLAYORDER=
